/* XPM */
static char *_f4b2c35f7b34e58ccd4cc3e6493a717eLcZ2qjJ1mfIoFJt[] = {
/* columns rows colors chars-per-pixel */
"64 64 7 1 ",
"  c None",
". c #211F30",
"X c #BA570B",
"o c #CE8B16",
"O c #E1CA33",
"+ c #F7EC8A",
"@ c white",
/* pixels */
"                                                                ",
"                                                                ",
"                                                                ",
"                                                                ",
"                                                                ",
"                                                                ",
"                                                                ",
"                                                                ",
"                                                                ",
"                                                                ",
"                                                                ",
"                                                                ",
"                                                                ",
"                                                                ",
"                                                                ",
"                                                                ",
"                                                                ",
"                                                                ",
"                      ...                                       ",
"                     .+@@.                                      ",
"                    .O+++@.                                     ",
"                    .O+++@.                                     ",
"                    .O++++.                                     ",
"                     .OOO.                                      ",
"                      ...                                       ",
"                      .o.                                       ",
"                      .O.                                       ",
"                      .o.                                       ",
"                      .O.                                       ",
"                      .O.                                       ",
"                      .O.                                       ",
"                      .O.                                       ",
"                      .O.                                       ",
"                      .+.                                       ",
"                      .+.                                       ",
"                      .+.                                       ",
"                      .+.                                       ",
"                      .+.                                       ",
"                      .+.                                       ",
"                      .O.                                       ",
"                      .+.                                       ",
"                      .O.                                       ",
"                      .O.                                       ",
"                      .O.                                       ",
"                      .O.                                       ",
"                      .O.                                       ",
"                      .O.                                       ",
"                      .O.                                       ",
"                      .O.                                       ",
"                      .O.                                       ",
"                      .O.                                       ",
"                      .O.                                       ",
"                      .O.                                       ",
"                      .o.                                       ",
"                      .O.                                       ",
"                      .o.                                       ",
"                      .o.                                       ",
"                      .O.                                       ",
"                      .o.                                       ",
"                      .o.                                       ",
"                     .....                                      ",
"                    .XooOO.                                     ",
"                    ..Xoo..                                     ",
"                   .XXooooO.                                    "
};
