/* XPM */
static char *_9c7029fcf924c98e783e1bf3be34cbbPbm1ISMhEhsVLDuU[] = {
/* columns rows colors chars-per-pixel */
"64 64 2 1 ",
"  c gray76",
". c gray80",
/* pixels */
"................................................................",
"...............  ..............................  ...............",
"..............    ............................    ..............",
".............      ..........................      .............",
"............        ........................        ............",
"...........          ......................          ...........",
"..........            ....................            ..........",
".........              ..................              .........",
"........                ................                ........",
".......                  ..............                  .......",
"......                    ............                    ......",
".....                      ..........                      .....",
"....                        ........                        ....",
"...                          ......                          ...",
"..                            ....                            ..",
".                              ..                              .",
".                              ..                              .",
"..                            ....                            ..",
"...                          ......                          ...",
"....                        ........                        ....",
".....                      ..........                      .....",
"......                    ............                    ......",
".......                  ..............                  .......",
"........                ................                ........",
".........              ..................              .........",
"..........            ....................            ..........",
"...........          ......................          ...........",
"............        ........................        ............",
".............      ..........................      .............",
"..............    ............................    ..............",
"...............  ..............................  ...............",
"................................................................",
"................................................................",
"...............  ..............................  ...............",
"..............    ............................    ..............",
".............      ..........................      .............",
"............        ........................        ............",
"...........          ......................          ...........",
"..........            ....................            ..........",
".........              ..................              .........",
"........                ................                ........",
".......                  ..............                  .......",
"......                    ............                    ......",
".....                      ..........                      .....",
"....                        ........                        ....",
"...                          ......                          ...",
"..                            ....                            ..",
".                              ..                              .",
".                              ..                              .",
"..                            ....                            ..",
"...                          ......                          ...",
"....                        ........                        ....",
".....                      ..........                      .....",
"......                    ............                    ......",
".......                  ..............                  .......",
"........                ................                ........",
".........              ..................              .........",
"..........            ....................            ..........",
"...........          ......................          ...........",
"............        ........................        ............",
".............      ..........................      .............",
"..............    ............................    ..............",
"...............  ..............................  ...............",
"................................................................"
};
